<?xml version="1.0" standalone="no"?>
<!DOCTYPE svg PUBLIC "-//W3C//DTD SVG 20010904//EN"
 "http://www.w3.org/TR/2001/REC-SVG-20010904/DTD/svg10.dtd">
<svg version="1.0" xmlns="http://www.w3.org/2000/svg"
 width="752.000000pt" height="752.000000pt" viewBox="0 0 752.000000 752.000000"
 preserveAspectRatio="xMidYMid meet">

<g transform="translate(0.000000,752.000000) scale(0.100000,-0.100000)"
fill="#000000" stroke="none">
<path d="M3490 5814 c-451 -60 -872 -268 -1194 -590 -306 -306 -502 -686 -581
-1129 -26 -144 -31 -424 -10 -585 97 -768 592 -1401 1314 -1685 377 -147 842
-175 1246 -74 76 19 255 77 264 85 2 2 -10 24 -28 49 -18 25 -50 83 -72 129
l-39 84 -88 -29 c-592 -190 -1249 -52 -1720 363 -406 357 -636 920 -592 1454
72 892 752 1572 1644 1644 534 44 1097 -186 1454 -592 415 -471 553 -1128 363
-1720 l-29 -88 84 -39 c46 -22 104 -54 129 -72 25 -18 47 -30 49 -28 2 2 18
45 34 94 73 213 112 448 112 675 0 1150 -934 2077 -2083 2069 -84 -1 -199 -7
-257 -15z"/>
<path d="M3400 4359 c-273 -15 -762 -76 -781 -97 -7 -8 -72 -422 -67 -427 2
-2 44 -10 95 -19 356 -61 657 -289 812 -616 83 -176 118 -365 106 -577 l-7
-123 202 0 202 0 -7 138 c-8 158 7 285 51 422 124 394 459 686 867 756 51 9
93 17 95 19 5 5 -60 419 -67 427 -4 5 -79 19 -166 33 -425 65 -902 88 -1335
64z m-475 -179 c10 -11 18 -34 18 -50 0 -53 -26 -70 -108 -70 -82 0 -108 17
-108 70 0 53 26 70 108 70 59 0 75 -4 90 -20z m1850 0 c10 -11 18 -34 18 -50
0 -53 -26 -70 -108 -70 -82 0 -108 17 -108 70 0 53 26 70 108 70 59 0 75 -4
90 -20z m-907 -68 c154 -48 262 -194 262 -352 0 -158 -108 -304 -262 -352
-109 -33 -226 -15 -322 51 -62 43 -111 112 -136 190 -25 80 -25 142 0 222 61
194 264 301 458 241z m-947 -150 c30 -25 30 -75 0 -105 -18 -18 -33 -22 -86
-22 -76 0 -108 22 -108 76 0 49 31 69 108 69 46 0 69 -5 86 -18z m1850 0 c30
-25 30 -75 0 -105 -18 -18 -33 -22 -86 -22 -76 0 -108 22 -108 76 0 49 31 69
108 69 46 0 69 -5 86 -18z"/>
<path d="M3682 3969 c-46 -14 -118 -88 -131 -135 -25 -89 -5 -170 54 -229 138
-138 375 -40 375 155 0 124 -102 222 -226 219 -22 0 -54 -5 -72 -10z"/>
<path d="M2321 4209 c-69 -16 -128 -32 -132 -36 -18 -19 -63 -325 -50 -338 9
-9 261 -5 261 4 0 5 14 96 30 201 17 105 30 193 30 196 0 6 -3 5 -139 -27z"/>
<path d="M5060 4235 c0 -2 14 -90 30 -195 17 -105 30 -196 30 -201 0 -9 252
-13 261 -4 8 7 -11 175 -29 260 l-17 80 -105 26 c-127 31 -170 40 -170 34z"/>
<path d="M5021 3004 c-36 -8 -103 -33 -150 -55 -122 -59 -241 -178 -299 -299
-115 -238 -89 -494 71 -705 166 -220 472 -310 738 -218 262 91 433 318 447
594 14 273 -133 516 -383 635 -127 61 -283 79 -424 48z m361 -327 c100 -32
193 -85 263 -149 50 -46 56 -55 53 -86 -4 -44 -44 -78 -81 -68 -14 3 -49 26
-79 52 -102 87 -233 134 -373 134 -142 0 -272 -48 -375 -138 -41 -36 -60 -46
-88 -46 -39 0 -72 31 -72 69 0 74 210 211 384 251 94 21 272 13 368 -19z
m-104 -202 c77 -18 163 -61 220 -110 35 -30 42 -43 42 -72 0 -77 -73 -99 -138
-42 -20 18 -61 44 -92 58 -46 22 -69 26 -145 26 -102 0 -156 -19 -231 -80 -49
-41 -93 -46 -124 -15 -34 34 -26 77 20 120 116 107 291 152 448 115z m-48
-216 c81 -18 160 -85 160 -135 0 -24 -47 -64 -75 -64 -15 0 -42 12 -60 26 -19
14 -53 28 -75 31 -34 5 -49 0 -91 -26 -58 -36 -91 -39 -119 -11 -46 46 -16
116 69 156 69 33 120 39 191 23z"/>
<path d="M3552 2248 l3 -103 98 -9 c55 -5 143 -5 205 0 l107 9 3 103 3 102
-211 0 -211 0 3 -102z"/>
</g>
</svg>
