<?xml version="1.0" standalone="no"?>
<!DOCTYPE svg PUBLIC "-//W3C//DTD SVG 20010904//EN"
 "http://www.w3.org/TR/2001/REC-SVG-20010904/DTD/svg10.dtd">
<svg version="1.0" xmlns="http://www.w3.org/2000/svg"
 width="752.000000pt" height="752.000000pt" viewBox="0 0 752.000000 752.000000"
 preserveAspectRatio="xMidYMid meet">

<g transform="translate(0.000000,752.000000) scale(0.100000,-0.100000)"
fill="#000000" stroke="none">
<path d="M5444 4741 c-148 -24 -260 -138 -272 -278 l-4 -53 -109 0 c-106 0
-110 -1 -141 -29 l-33 -29 1 -159 c1 -87 3 -176 5 -198 10 -119 -142 -255
-395 -355 l-59 -24 -16 23 c-8 13 -34 38 -58 56 l-43 33 48 24 c72 37 115 116
98 183 -9 34 -73 97 -138 134 -48 28 -61 31 -145 31 l-91 0 -11 33 c-5 17 -29
95 -51 172 -23 77 -53 162 -68 188 -35 64 -100 122 -180 160 l-67 32 -750 0
-750 0 -55 -22 c-76 -31 -167 -107 -201 -168 -16 -28 -42 -98 -59 -155 -17
-58 -40 -135 -51 -172 l-20 -68 -92 0 c-83 0 -97 -3 -142 -29 -79 -46 -126
-101 -132 -153 -9 -75 41 -147 122 -178 l27 -10 -40 -30 c-49 -35 -84 -80
-114 -146 -22 -48 -23 -59 -26 -399 -3 -236 0 -362 7 -387 14 -45 50 -75 107
-89 l44 -11 2 -171 3 -171 35 -24 c33 -22 42 -23 163 -20 l129 3 29 33 29 32
0 165 0 165 970 0 970 0 0 -163 c0 -178 4 -193 60 -222 39 -20 256 -21 304 -1
61 25 66 43 66 216 l0 155 52 20 c36 14 60 31 75 54 23 34 23 36 23 391 l0
356 93 38 c190 78 339 190 399 301 42 78 70 189 75 298 l5 97 44 0 44 0 0
-845 0 -845 -21 0 c-34 0 -77 -31 -95 -68 -24 -50 -13 -100 31 -139 l35 -33
426 0 c467 0 462 -1 498 60 45 77 -11 180 -98 180 l-25 0 -3 978 c-3 746 -7
986 -16 1014 -32 93 -124 185 -210 207 -55 15 -180 21 -238 12z m-1762 -181
c57 -16 130 -71 160 -120 18 -29 54 -137 98 -290 39 -135 70 -246 70 -247 0
-2 -475 -3 -1056 -3 -1000 0 -1055 1 -1050 18 3 9 34 124 71 256 36 131 74
251 86 267 31 44 98 97 143 113 34 12 154 15 741 15 448 1 713 -3 737 -9z
m1984 -17 c57 -41 64 -71 64 -267 l0 -176 -195 0 -195 0 0 184 c0 174 1 185
23 217 37 55 78 70 182 67 74 -2 96 -7 121 -25z m-86 -1034 c-23 -83 -38 -155
-33 -159 4 -4 56 -20 116 -35 59 -16 107 -31 107 -35 0 -8 -264 -377 -286
-400 -12 -12 -14 -12 -14 3 0 9 14 80 30 158 17 78 27 145 23 149 -4 4 -56 20
-115 35 -60 15 -108 32 -108 37 0 13 311 410 317 404 3 -2 -14 -73 -37 -157z
m-3623 -30 c34 -13 80 -55 99 -91 8 -15 14 -50 14 -78 0 -186 -240 -248 -331
-85 -80 141 66 312 218 254z m2143 -11 c132 -67 132 -249 0 -315 -24 -13 -60
-23 -80 -23 -20 0 -56 10 -80 23 -132 66 -132 248 0 315 24 12 60 22 80 22 20
0 56 -10 80 -22z m-660 -433 l0 -115 -475 0 -475 0 0 115 0 115 475 0 475 0 0
-115z"/>
</g>
</svg>
