<?xml version="1.0" standalone="no"?>
<!DOCTYPE svg PUBLIC "-//W3C//DTD SVG 20010904//EN"
 "http://www.w3.org/TR/2001/REC-SVG-20010904/DTD/svg10.dtd">
<svg version="1.0" xmlns="http://www.w3.org/2000/svg"
 width="752.000000pt" height="752.000000pt" viewBox="0 0 752.000000 752.000000"
 preserveAspectRatio="xMidYMid meet">

<g transform="translate(0.000000,752.000000) scale(0.100000,-0.100000)"
fill="#000000" stroke="none">
<path d="M3440 5665 c-268 -37 -490 -105 -736 -225 -131 -64 -367 -212 -442
-277 l-33 -28 133 -132 133 -133 76 54 c317 224 675 358 1027 382 l92 7 0 168
c0 144 -2 169 -15 169 -8 0 -15 7 -15 15 0 19 -83 19 -220 0z"/>
<path d="M3830 5496 l0 -183 93 -7 c363 -25 727 -167 1043 -404 l40 -31 133
133 133 133 -58 47 c-194 158 -465 303 -729 389 -180 59 -444 107 -591 107
l-64 0 0 -184z"/>
<path d="M5251 4906 l-135 -135 95 -98 c274 -284 435 -605 519 -1035 l11 -58
162 0 161 0 29 -27 c25 -24 29 -25 24 -8 -3 11 -9 45 -12 75 -37 300 -173 684
-338 949 -69 112 -201 281 -293 379 l-89 93 -134 -135z"/>
<path d="M2076 5015 c4 -10 -15 -37 -54 -78 -233 -239 -433 -590 -532 -934
-28 -98 -58 -249 -75 -375 l-6 -48 185 0 185 0 11 58 c84 424 273 802 533
1069 l61 63 -30 32 c-17 18 -65 71 -108 118 -82 88 -112 110 -152 110 -17 0
-22 -4 -18 -15z"/>
<path d="M2101 3826 c7 -7 741 -305 1070 -435 214 -85 313 -129 330 -147 44
-48 97 -68 174 -68 80 0 129 20 182 76 112 117 71 313 -81 384 -59 27 -130 31
-190 9 -37 -13 -64 -10 -355 35 -282 44 -1070 150 -1116 150 -10 0 -16 -2 -14
-4z m1634 -247 c83 -23 132 -106 113 -193 -26 -124 -130 -178 -238 -123 -104
52 -128 178 -53 268 46 54 101 69 178 48z"/>
<path d="M1400 3286 c0 -403 110 -810 314 -1160 62 -106 196 -301 201 -293 1
1 48 80 103 175 l102 172 -41 63 c-65 100 -165 312 -208 442 -70 214 -101 406
-101 622 l0 133 -185 0 -185 0 0 -154z"/>
<path d="M5750 3311 c0 -229 -43 -468 -125 -686 -42 -113 -136 -306 -189 -389
l-36 -56 86 -145 c72 -123 83 -148 74 -165 -10 -19 -8 -20 45 -20 51 0 56 2
50 19 -4 14 8 38 39 81 65 88 171 274 221 387 134 306 193 568 202 901 l6 202
-187 0 -186 0 0 -129z"/>
</g>
</svg>
