<svg xmlns="http://www.w3.org/2000/svg" xmlns:xlink="http://www.w3.org/1999/xlink" version="1.1" width="2500pt" height="326pt" viewBox="0 0 2500 326">
<defs>
<clipPath id="clip_0">
<path transform="matrix(1,0,0,-1,0,326)" d="M0 326H2500V0H0Z"/>
</clipPath>
</defs>
<g id="layer_1" data-name="">
<g clip-path="url(#clip_0)">
<path transform="matrix(1,0,0,-1,755.0776,293.0684)" d="M0 0H193.49C220.722 5.017 240.787 29.382 245.804 52.314H-53.031C-47.298 29.382-27.232 5.017 0 0M0 105.345H193.49C220.722 110.361 240.787 134.727 245.804 157.659H-53.031C-47.298 134.727-27.232 111.078 0 105.345M0 207.823H193.49C220.722 212.839 240.787 237.205 245.804 260.137H-53.031C-47.298 237.205-27.232 213.556 0 207.823M441.443 208.539H620.6C647.833 216.422 670.047 237.205 675.781 259.42H391.996V106.062H624.183V52.314H442.16C413.495 44.432 389.129 25.082 376.947 0H674.347V156.942H442.16L441.443 208.539M1049.861 0C1074.943 10.75 1088.559 29.382 1094.292 50.881H868.554V259.42H817.673V0H1049.861M1246.934 207.823H1440.424C1467.656 212.839 1487.004 237.205 1492.738 260.137H1194.621C1200.353 237.205 1220.418 213.556 1246.934 207.823M1202.503 156.942V0H1252.667V104.628H1436.125V0H1486.289V156.942H1202.503" fill="#5e5e5e"/>
<path transform="matrix(1,0,0,-1,251.2876,33.648408)" d="M0 0C5.733-22.932 25.798-45.864 52.313-51.597H134.009L138.309-53.031V-258.703H189.19V-53.031L193.49-51.597H275.186C302.417-44.431 321.766-22.932 327.499 0V.717L0 0" fill="#5e5e5e"/>
</g>
</g>
</svg>
